# xmcd
#
# Track frame offsets:
#	150
#	56233
#	99913
#	156455
#
# Disc length: 2519 seconds
#
# Revision: 0
# Processed by: cddbd v1.5.2PL0 Copyright (c) Steve Scherf et al.
# Submitted via: audiograbber 1.83.01
#
DISCID=2f09d504
DTITLE=Grateful Dead - 94-07-03 Shoreline Amphitheatre, Mountain View CA
DYEAR=1900
DGENRE=
TTITLE0=Space
TTITLE1=Corrina
TTITLE2=Days Between
TTITLE3=Good Lovin'
EXTD=
EXTT0=
EXTT1=
EXTT2=
EXTT3=
PLAYORDER=
